<?xml version="1.0" standalone="no"?>
<!DOCTYPE svg PUBLIC "-//W3C//DTD SVG 20010904//EN"
 "http://www.w3.org/TR/2001/REC-SVG-20010904/DTD/svg10.dtd">
<svg version="1.0" xmlns="http://www.w3.org/2000/svg"
 width="260.000000pt" height="260.000000pt" viewBox="0 0 260.000000 260.000000"
 preserveAspectRatio="xMidYMid meet">
<metadata>
Created by potrace 1.11, written by Peter Selinger 2001-2013
</metadata>
<g transform="translate(0.000000,260.000000) scale(0.100000,-0.100000)"
fill="#000000" stroke="none">
<path d="M1234 2510 c-42 -13 -91 -70 -100 -115 -15 -81 23 -151 100 -180 104
-40 204 24 214 137 4 58 -17 102 -69 141 -31 22 -100 30 -145 17z m104 -79
c33 -18 45 -67 26 -107 -37 -78 -154 -51 -154 35 1 72 63 107 128 72z"/>
<path d="M725 2199 c-38 -3 -78 -9 -87 -13 -10 -5 -51 -49 -90 -99 -40 -51
-78 -99 -85 -107 -7 -8 -20 -26 -31 -39 l-19 -24 184 -236 c102 -130 192 -244
201 -253 16 -16 22 -11 94 82 l77 100 -61 76 c-118 149 -129 176 -83 212 49
39 71 22 209 -163 15 -20 15 -20 35 5 11 14 47 59 79 100 l60 75 -62 80 c-130
170 -153 194 -189 199 -55 9 -160 11 -232 5z"/>
<path d="M1660 2202 c-75 -9 -54 15 -455 -502 -126 -162 -231 -297 -235 -300
-27 -25 -71 -94 -66 -105 12 -33 112 -146 132 -151 36 -9 59 10 151 129 402
517 479 614 496 628 11 9 28 15 36 14 9 -2 22 -4 28 -4 21 -2 42 -53 32 -78
-5 -13 -40 -64 -79 -114 -38 -50 -70 -99 -70 -109 0 -17 103 -163 132 -188 10
-8 54 42 198 225 102 130 190 243 197 253 10 14 -3 35 -83 136 -51 65 -94 122
-94 125 0 3 -17 13 -37 22 -36 16 -212 27 -283 19z"/>
<path d="M362 1453 c-13 -2 -41 -22 -62 -43 -67 -67 -67 -153 0 -220 101 -101
270 -31 270 113 0 48 -26 96 -71 130 -27 19 -94 29 -137 20z m87 -78 c63 -32
56 -131 -10 -154 -104 -36 -156 118 -54 160 28 11 33 11 64 -6z"/>
<path d="M1478 1433 c-14 -16 -128 -161 -254 -323 -125 -162 -231 -297 -234
-300 -3 -3 -21 -26 -40 -52 -40 -57 -70 -79 -101 -73 -47 9 -68 56 -41 97 9
15 45 64 80 108 34 45 62 92 62 104 0 21 -125 196 -139 196 -3 -1 -62 -73
-131 -162 -69 -89 -157 -203 -196 -253 l-72 -92 90 -114 c49 -63 99 -126 111
-141 l22 -28 175 0 175 0 99 128 c221 282 484 618 543 690 70 88 71 79 -20
185 -57 67 -88 74 -129 30z"/>
<path d="M2103 1442 c-53 -31 -60 -37 -76 -69 -34 -66 -22 -137 33 -186 43
-39 85 -52 138 -42 143 27 176 226 49 292 -46 23 -108 26 -144 5z m125 -85
c44 -40 16 -128 -45 -140 -81 -15 -135 95 -70 145 40 31 76 29 115 -5z"/>
<path d="M1755 1177 c-68 -83 -136 -180 -132 -190 3 -7 41 -59 86 -116 45 -57
81 -110 81 -118 0 -40 -50 -80 -85 -66 -9 3 -52 50 -96 105 l-81 99 -30 -43
c-17 -24 -51 -67 -75 -97 -25 -30 -42 -60 -38 -68 3 -8 51 -75 108 -148 l102
-134 176 0 176 -1 103 133 c57 72 107 137 112 143 7 10 -53 91 -320 429 -35
44 -67 81 -70 82 -4 1 -11 -3 -17 -10z"/>
<path d="M1218 380 c-137 -74 -104 -271 50 -296 165 -26 249 188 112 287 -40
29 -118 33 -162 9z m147 -106 c15 -31 15 -37 0 -68 -15 -32 -47 -54 -72 -50
-7 1 -20 2 -28 3 -28 2 -55 43 -55 83 0 88 117 113 155 32z"/>
</g>
</svg>
